<svg width="128" height="128" viewBox="0 0 27 25" fill="none" xmlns="http://www.w3.org/2000/svg">
<path d="M27 18.4875C27 20.1422 25.6547 21.4875 24 21.4875H9.62344C8.82656 21.4875 8.0625 21.1735 7.5 20.611L0.439312 13.5469C0.158016 13.2657 0 12.886 0 12.4875C0 12.0891 0.158062 11.7094 0.439312 11.4282L7.5 4.36646C8.0625 3.80349 8.82656 3.48755 9.62344 3.48755H24C25.6547 3.48755 27 4.83052 27 6.48755V18.4875ZM12.7031 10.2422L14.9109 12.4875L12.7031 14.6907C12.2672 15.1313 12.2672 15.8438 12.7031 16.2422C13.1438 16.7204 13.8563 16.7204 14.2547 16.2422L16.5 14.0766L18.7031 16.2422C19.1437 16.7204 19.8563 16.7204 20.2547 16.2422C20.7328 15.8438 20.7328 15.1313 20.2547 14.6907L18.0891 12.4875L20.2547 10.2422C20.7328 9.8438 20.7328 9.1313 20.2547 8.69067C19.8563 8.25474 19.1437 8.25474 18.7031 8.69067L16.5 10.8985L14.2547 8.69067C13.8563 8.25474 13.1438 8.25474 12.7031 8.69067C12.2672 9.1313 12.2672 9.8438 12.7031 10.2422Z" fill="black"/>
</svg>
