<svg width="128" height="128" viewBox="0 0 30 25" fill="none" xmlns="http://www.w3.org/2000/svg">
<g clip-path="url(#clip0_7_12221)">
<path d="M10.5 12.4875C13.8141 12.4875 16.5 9.80114 16.5 6.48755C16.5 3.17395 13.8141 0.487549 10.5 0.487549C7.18594 0.487549 4.5 3.17395 4.5 6.48755C4.5 9.80114 7.18594 12.4875 10.5 12.4875ZM12.8766 14.7375H8.12344C3.63609 14.7375 0 18.375 0 22.861C0 23.761 0.7275 24.4875 1.62469 24.4875H19.3734C20.2734 24.4875 21 23.761 21 22.861C21 18.375 17.3625 14.7375 12.8766 14.7375ZM22.4578 15.4875H18.9961C21.15 17.2547 22.5 19.8985 22.5 22.861C22.5 23.461 22.3219 24.0141 22.0312 24.4875H28.5C29.3297 24.4875 30 23.8125 30 22.9454C30 18.8438 26.6438 15.4875 22.4578 15.4875ZM20.25 12.4875C23.1516 12.4875 25.5 10.1391 25.5 7.23755C25.5 4.33599 23.1516 1.98755 20.25 1.98755C19.073 1.98755 17.9981 2.38856 17.1225 3.04271C17.6625 4.07958 18 5.24067 18 6.48755C18 8.15255 17.4408 9.68161 16.5192 10.9271C17.4703 11.8875 18.7875 12.4875 20.25 12.4875Z" fill="black"/>
</g>
<defs>
<clipPath id="clip0_7_12221">
<rect width="30" height="24" fill="white" transform="translate(0 0.487549)"/>
</clipPath>
</defs>
</svg>
