<svg width="128" height="128" viewBox="0 0 25 24" fill="none" xmlns="http://www.w3.org/2000/svg">
<path d="M22.5001 18.33C22.5001 18.69 22.4201 19.06 22.2501 19.42C22.0801 19.78 21.8601 20.12 21.5701 20.44C21.0801 20.98 20.5401 21.37 19.9301 21.62C19.3301 21.87 18.6701 22 17.9701 22C16.9501 22 15.8601 21.76 14.7101 21.27C13.5601 20.78 12.4001 20.12 11.2601 19.29C10.6801 18.86 10.1101 18.42 9.56006 17.94L12.8201 14.68C12.8301 14.68 12.8301 14.68 12.8401 14.69C13.3601 15.13 13.7901 15.43 14.1301 15.61C14.1801 15.63 14.2401 15.66 14.3101 15.69C14.3901 15.72 14.4701 15.73 14.5601 15.73C14.7301 15.73 14.8601 15.67 14.9701 15.56L15.7301 14.81C15.9801 14.56 16.2201 14.37 16.4501 14.25C16.6801 14.11 16.9101 14.04 17.1601 14.04C17.3501 14.04 17.5501 14.08 17.7701 14.17C17.9901 14.26 18.2201 14.39 18.4701 14.56L21.7901 16.91C22.0501 17.09 22.2301 17.3 22.3401 17.55C22.4401 17.8 22.5001 18.05 22.5001 18.33Z" fill="#292D32"/>
<path d="M11.26 13.24L8 16.5C7.99 16.5 7.99 16.5 7.98 16.49C6.95 15.45 6.02 14.36 5.18 13.22C4.37 12.1 3.72 10.97 3.24 9.86C3.23 9.84 3.23 9.83 3.22 9.81C2.74 8.67 2.5 7.58 2.5 6.54C2.5 5.86 2.62 5.21 2.86 4.61C3.06 4.1 3.36 3.62 3.77 3.19C3.84 3.11 3.92 3.02 4.01 2.94C4.17 2.78 4.33 2.64 4.5 2.53C4.51 2.53 4.51 2.53 4.51 2.53C5.01 2.17 5.54 2 6.1 2C6.38 2 6.66 2.06 6.91 2.18C7.15 2.29 7.36 2.45 7.53 2.68C7.55 2.7 7.56 2.72 7.58 2.74L9.9 6.01C10.08 6.26 10.21 6.49 10.3 6.71C10.39 6.92 10.44 7.13 10.44 7.32C10.44 7.56 10.37 7.8 10.23 8.03C10.1 8.26 9.91 8.5 9.67 8.74L8.91 9.53C8.8 9.64 8.75 9.77 8.75 9.93C8.75 10.01 8.76 10.08 8.78 10.16C8.81 10.24 8.84 10.3 8.86 10.36C9.04 10.69 9.35 11.12 9.79 11.64C10.24 12.16 10.72 12.69 11.24 13.22C11.25 13.23 11.25 13.23 11.26 13.24Z" fill="#292D32"/>
<path d="M22.2699 2.22988C21.9699 1.92988 21.4799 1.92988 21.1799 2.22988L2.72988 20.6899C2.42988 20.9899 2.42988 21.4799 2.72988 21.7799C2.87988 21.9199 3.06988 21.9999 3.26988 21.9999C3.46988 21.9999 3.65988 21.9199 3.80988 21.7699L22.2699 3.30988C22.5799 3.00988 22.5799 2.52988 22.2699 2.22988Z" fill="#292D32"/>
</svg>
