<svg width="128" height="128" viewBox="0 0 30 25" fill="none" xmlns="http://www.w3.org/2000/svg">
<path d="M14.9578 16.9454C13.3008 16.9454 11.9578 18.2888 11.9578 19.9458C11.9578 21.6029 13.3013 22.9463 14.9578 22.9463C16.6144 22.9463 17.9578 21.6029 17.9578 19.9458C17.9578 18.2888 16.6547 16.9454 14.9578 16.9454ZM15 9.44536C11.707 9.44536 8.53594 10.6454 6.07032 12.8218C5.45157 13.411 5.39063 14.3579 5.93907 14.9813C6.49219 15.6 7.43907 15.661 8.05782 15.1125C9.97501 13.4204 12.4406 12.4875 15 12.4875C17.5594 12.4875 20.0297 13.4194 21.9422 15.1125C22.2281 15.3657 22.5844 15.4875 22.9359 15.4875C23.3505 15.4875 23.7638 15.3162 24.0609 14.9808C24.6094 14.3579 24.5531 13.411 23.9297 12.8625C21.4641 10.6875 18.2953 9.44536 15 9.44536ZM29.5406 7.83286C25.6078 4.06317 20.4469 1.98755 15 1.98755C9.55313 1.98755 4.39173 4.06317 0.461445 7.83286C-0.136211 8.40708 -0.15543 9.3563 0.4175 9.95395C0.990312 10.553 1.93953 10.569 2.53859 9.9979C5.86407 6.72661 10.3313 4.98755 15 4.98755C19.6688 4.98755 24.0516 6.76739 27.4594 9.99849C27.7547 10.275 28.125 10.4157 28.5 10.4157C28.894 10.4157 29.288 10.2619 29.5824 9.95424C30.1547 9.3563 30.1359 8.36724 29.5406 7.83286Z" fill="black"/>
</svg>
