<svg width="128" height="128" viewBox="0 0 25 25" fill="none" xmlns="http://www.w3.org/2000/svg">
<path d="M23.03 13.9197L21.58 12.4697L22.98 11.0697C23.27 10.7797 23.27 10.2997 22.98 10.0097C22.69 9.71969 22.21 9.71969 21.92 10.0097L20.52 11.4097L19.07 9.95969C18.78 9.66969 18.3 9.66969 18.01 9.95969C17.72 10.2497 17.72 10.7297 18.01 11.0197L19.46 12.4697L17.97 13.9597C17.68 14.2497 17.68 14.7297 17.97 15.0197C18.12 15.1697 18.31 15.2397 18.5 15.2397C18.69 15.2397 18.88 15.1697 19.03 15.0197L20.52 13.5297L21.97 14.9797C22.12 15.1297 22.31 15.1997 22.5 15.1997C22.69 15.1997 22.88 15.1297 23.03 14.9797C23.32 14.6897 23.32 14.2197 23.03 13.9197Z" fill="#292D32"/>
<path d="M14.52 4.27972C13.4 3.65972 11.97 3.81972 10.51 4.72972L7.59 6.55972C7.39 6.67972 7.16 6.74972 6.93 6.74972H6H5.5C3.08 6.74972 1.75 8.07972 1.75 10.4997V14.4997C1.75 16.9197 3.08 18.2497 5.5 18.2497H6H6.93C7.16 18.2497 7.39 18.3197 7.59 18.4397L10.51 20.2697C11.39 20.8197 12.25 21.0897 13.05 21.0897C13.57 21.0897 14.07 20.9697 14.52 20.7197C15.63 20.0997 16.25 18.8097 16.25 17.0897V7.90972C16.25 6.18972 15.63 4.89972 14.52 4.27972Z" fill="#292D32"/>
</svg>
