<svg width="128" height="128" viewBox="0 0 27 24" fill="none" xmlns="http://www.w3.org/2000/svg">
<g clip-path="url(#clip0_7_4345)">
<path d="M17.25 15.75H15.75C15.334 15.75 15 16.084 15 16.5V18C15 18.416 15.334 18.75 15.75 18.75H17.25C17.666 18.75 18 18.416 18 18V16.5C18 16.0828 17.6672 15.75 17.25 15.75ZM15 12V13.5C15 13.916 15.334 14.25 15.75 14.25H17.25C17.6672 14.25 18 13.9172 18 13.5V12C18 11.584 17.666 11.25 17.25 11.25H15.75C15.3328 11.25 15 11.5828 15 12ZM20.25 18.75H21.75C22.166 18.75 22.5 18.416 22.5 18V16.5C22.5 16.084 22.166 15.75 21.75 15.75H20.25C19.834 15.75 19.5 16.084 19.5 16.5V18C19.5 18.4172 19.8328 18.75 20.25 18.75ZM20.25 14.25H21.75C22.1672 14.25 22.5 13.9172 22.5 13.5V12C22.5 11.584 22.166 11.25 21.75 11.25H20.25C19.8328 11.25 19.5 11.5828 19.5 12V13.5C19.5 13.9172 19.8328 14.25 20.25 14.25ZM24 1.5H12.6094C12.3047 0.627187 11.4797 0 10.5 0H6.75C5.77031 0 4.94531 0.627187 4.64062 1.5H3C1.34156 1.5 0 2.84156 0 4.5V21C0 22.6584 1.34156 24 3 24H24C25.6584 24 27 22.6584 27 21V4.5C27 2.84156 25.6594 1.5 24 1.5ZM6.75 2.25H10.5V17.25H6.75V2.25ZM24.75 21C24.75 21.416 24.416 21.75 24 21.75H3C2.58398 21.75 2.25 21.416 2.25 21V4.5C2.25 4.08398 2.58398 3.75 3 3.75H4.5V17.25C4.5 18.4922 5.50781 19.5 6.75 19.5H10.5C11.7422 19.5 12.75 18.4922 12.75 17.25V3.75H15V7.125C15 8.15625 15.8016 9 16.875 9H24.75V21ZM24.75 6.75H17.25V3.75H24C24.416 3.75 24.75 4.08398 24.75 4.5V6.75Z" fill="#2B2829"/>
</g>
<defs>
<clipPath id="clip0_7_4345">
<rect width="27" height="24" fill="white"/>
</clipPath>
</defs>
</svg>
