<svg width="128" height="128" viewBox="0 0 24 25" fill="none" xmlns="http://www.w3.org/2000/svg">
<path d="M2.46141 3.83489C1.49437 3.03192 0 3.70599 0 4.98896V19.9843C0 21.2672 1.49437 21.9408 2.46141 21.1383L11.4614 13.6805C12.1762 13.0772 12.1762 11.9757 11.4614 11.3724L2.46141 3.83489ZM16.5 3.48755C15.6717 3.48755 14.9986 4.15927 14.9986 4.98755V19.9875C14.9986 20.8158 15.6703 21.4875 16.4986 21.4875C17.325 21.4875 18 20.8172 18 19.9875V4.98755C18 4.15927 17.3297 3.48755 16.5 3.48755ZM22.5 3.48755C21.6717 3.48755 20.9986 4.15927 20.9986 4.98755V19.9875C20.9986 20.8158 21.6703 21.4875 22.4986 21.4875C23.325 21.4875 24 20.8172 24 19.9875V4.98755C24 4.15927 23.3297 3.48755 22.5 3.48755Z" fill="black"/>
</svg>
