<svg width="128" height="128" viewBox="0 0 21 25" fill="none" xmlns="http://www.w3.org/2000/svg">
<path d="M6.75 1.98755C7.99219 1.98755 9 2.99489 9 4.23755V8.73755C9 9.97974 7.99219 10.9875 6.75 10.9875H2.25C1.00734 10.9875 0 9.97974 0 8.73755V4.23755C0 2.99489 1.00734 1.98755 2.25 1.98755H6.75ZM6 4.98755H3V7.98755H6V4.98755ZM6.75 13.9875C7.99219 13.9875 9 14.9954 9 16.2375V20.7375C9 21.9797 7.99219 22.9875 6.75 22.9875H2.25C1.00734 22.9875 0 21.9797 0 20.7375V16.2375C0 14.9954 1.00734 13.9875 2.25 13.9875H6.75ZM6 16.9875H3V19.9875H6V16.9875ZM12 4.23755C12 2.99489 13.0078 1.98755 14.25 1.98755H18.75C19.9922 1.98755 21 2.99489 21 4.23755V8.73755C21 9.97974 19.9922 10.9875 18.75 10.9875H14.25C13.0078 10.9875 12 9.97974 12 8.73755V4.23755ZM15 7.98755H18V4.98755H15V7.98755ZM16.5 21.4875H18V22.9875H16.5V21.4875ZM21 22.9875H19.5V21.4875H21V22.9875ZM19.5 13.9875H21V19.9875H16.5V18.4875H15V22.9875H12V13.9875H16.5V15.4875H19.5V13.9875Z" fill="black"/>
</svg>
