<svg width="128" height="128" viewBox="0 0 25 25" fill="none" xmlns="http://www.w3.org/2000/svg">
<path d="M12.5 2.5C6.98 2.5 2.5 6.98 2.5 12.5C2.5 18.02 6.98 22.5 12.5 22.5C18.02 22.5 22.5 18.02 22.5 12.5C22.5 6.98 18.02 2.5 12.5 2.5ZM15.92 17.08C15.77 17.29 15.54 17.39 15.31 17.39C15.16 17.39 15.01 17.34 14.87 17.25C13.33 16.15 11.36 15.91 9.60001 16.6C9.22001 16.75 8.78 16.56 8.63 16.18C8.48 15.79 8.67 15.36 9.05 15.21C11.29 14.32 13.79 14.63 15.74 16.03C16.09 16.28 16.16 16.75 15.92 17.08ZM17.02 14.29C16.87 14.5 16.64 14.6 16.41 14.6C16.26 14.6 16.11 14.55 15.97 14.46C13.85 12.94 11.14 12.61 8.71001 13.57C8.33001 13.72 7.89001 13.53 7.74001 13.15C7.59001 12.76 7.78 12.33 8.16 12.18C11.06 11.03 14.31 11.43 16.84 13.25C17.18 13.49 17.26 13.96 17.02 14.29ZM18.59 11.61C18.44 11.82 18.21 11.92 17.98 11.92C17.83 11.92 17.68 11.87 17.54 11.78C14.56 9.64 10.74 9.17 7.34 10.53C6.95 10.68 6.52 10.49 6.37 10.11C6.22 9.72999 6.40999 9.29001 6.78999 9.14001C10.67 7.60001 15.02 8.13001 18.42 10.57C18.76 10.8 18.84 11.27 18.59 11.61Z" fill="black"/>
</svg>
