<svg width="128" height="128" viewBox="0 0 25 25" fill="none" xmlns="http://www.w3.org/2000/svg">
<path d="M19.83 17.2503C19.67 17.2503 19.52 17.2003 19.38 17.1003C19.05 16.8503 18.98 16.3803 19.23 16.0503C20.8 13.9603 20.8 11.0403 19.23 8.95027C18.98 8.62027 19.05 8.15027 19.38 7.90027C19.71 7.65027 20.18 7.72027 20.43 8.05027C22.4 10.6703 22.4 14.3303 20.43 16.9503C20.29 17.1503 20.06 17.2503 19.83 17.2503Z" fill="#292D32"/>
<path d="M15.85 4.27972C14.73 3.65972 13.3 3.81972 11.84 4.72972L8.92 6.55972C8.72 6.67972 8.49 6.74972 8.26 6.74972H7.33H6.83C4.41 6.74972 3.08 8.07972 3.08 10.4997V14.4997C3.08 16.9197 4.41 18.2497 6.83 18.2497H7.33H8.26C8.49 18.2497 8.72 18.3197 8.92 18.4397L11.84 20.2697C12.72 20.8197 13.58 21.0897 14.38 21.0897C14.9 21.0897 15.4 20.9697 15.85 20.7197C16.96 20.0997 17.58 18.8097 17.58 17.0897V7.90972C17.58 6.18972 16.96 4.89972 15.85 4.27972Z" fill="#292D32"/>
</svg>
