<svg width="128" height="128" viewBox="0 0 25 25" fill="none" xmlns="http://www.w3.org/2000/svg">
<path d="M18.5 17.2503C18.34 17.2503 18.19 17.2003 18.05 17.1003C17.72 16.8503 17.65 16.3803 17.9 16.0503C19.47 13.9603 19.47 11.0403 17.9 8.95027C17.65 8.62027 17.72 8.15027 18.05 7.90027C18.38 7.65027 18.85 7.72027 19.1 8.05027C21.06 10.6703 21.06 14.3303 19.1 16.9503C18.95 17.1503 18.73 17.2503 18.5 17.2503Z" fill="#292D32"/>
<path d="M20.33 19.7503C20.17 19.7503 20.02 19.7003 19.88 19.6003C19.55 19.3503 19.48 18.8803 19.73 18.5503C22.4 14.9903 22.4 10.0103 19.73 6.45027C19.48 6.12027 19.55 5.65027 19.88 5.40027C20.21 5.15027 20.68 5.22027 20.93 5.55027C24 9.64027 24 15.3603 20.93 19.4503C20.79 19.6503 20.56 19.7503 20.33 19.7503Z" fill="#292D32"/>
<path d="M14.52 4.27972C13.4 3.65972 11.97 3.81972 10.51 4.72972L7.59 6.55972C7.39 6.67972 7.16 6.74972 6.93 6.74972H6H5.5C3.08 6.74972 1.75 8.07972 1.75 10.4997V14.4997C1.75 16.9197 3.08 18.2497 5.5 18.2497H6H6.93C7.16 18.2497 7.39 18.3197 7.59 18.4397L10.51 20.2697C11.39 20.8197 12.25 21.0897 13.05 21.0897C13.57 21.0897 14.07 20.9697 14.52 20.7197C15.63 20.0997 16.25 18.8097 16.25 17.0897V7.90972C16.25 6.18972 15.63 4.89972 14.52 4.27972Z" fill="#292D32"/>
</svg>
